<svg version="1.0" xmlns="http://www.w3.org/2000/svg" width="933.333" height="933.333" viewBox="0 0 700 700"><path d="M317 1.1c-39.9 4-79.6 15.8-121.5 36.4C124.6 72.2 70.7 124 37.1 189.8 4.8 253.3-6.8 328.4 4.1 404.5c13.8 96.1 66.8 180.9 144.9 232 34.8 22.8 67 35.6 75.5 30.1 8-5.3-3-20.6-31.5-43.6-21.5-17.4-33.1-30.1-38.5-42.5-5.1-11.5-6.5-20.2-7.6-47.5-1.9-50.1-7.2-70-23-86.2-12-12.4-17.6-26.5-18.6-46.3-.9-19.5 3.6-33.2 15-45.2 3.5-3.8 7.6-8.9 9-11.4 7.1-12 11.9-29.5 14.2-51 2.6-23.7 6.3-37.1 15.4-56.4 16.9-35.4 42.5-64.3 78.1-88 58-38.6 122.9-46.8 183.5-23.1 62 24.3 111.9 74.7 130.3 131.6 3.9 11.9 5.8 21.3 7.2 36 1.7 17.8 6.7 36.6 13 49 1.2 2.4 5.3 7.6 9 11.5 10.1 10.7 14.5 20.7 16.5 37.6.7 6.4-.9 20.8-3.2 28.9-2.6 9.2-8.3 18.9-16 27.1-8.2 8.8-12.2 16-15.8 28.6-4.1 14.2-5.5 25.3-6.5 52.3-1 27.1-1.8 34.6-5.1 45-5.4 17.3-14.2 27.7-44.9 53.1-23.9 19.9-34.9 34.6-29.8 39.7 2 2 10.4 1.4 18.4-1.3 13-4.4 37.2-17.3 52.9-28.4 19.8-14 49.3-41.8 65.1-61.6 55.7-69.5 87.1-156.8 84-233.5-2.7-69.6-26.4-135.1-69.5-192.5-60.7-80.6-147.8-132.9-243.6-146C369 .6 329.9-.2 317 1.1z"/><path d="M333 156.5c-38 8.5-81.4 28-96.8 43.5-5 5.1-6.1 8.3-4 11.9 7.2 12.1 53 30.6 93.3 37.7 14.8 2.6 37.6 2.4 53-.4 45.5-8.5 91.5-28.9 91.5-40.5 0-4-3.7-8.7-11.3-14.1-27-19.2-85.7-40.9-109.6-40.5-3.1 0-10.3 1.1-16.1 2.4zM197.7 262.2c-7.1 7.1-11.8 47.4-6.8 58.4 6.3 13.9 21.2 15.3 159.6 15.4 115.4 0 139.5-1.2 152.4-7.8 8.6-4.3 9.6-7.1 9.6-26.2-.2-44.9-11.3-50.7-56.5-29.5-7.4 3.5-17.8 7.7-23 9.3-47.5 15-121.5 14.6-167.5-1-3.3-1.1-12.4-4.9-20.1-8.4-16.1-7.2-28.6-11.1-38.4-12-6.4-.6-7-.5-9.3 1.8zM189.5 381.1c-13.7.9-26.2 2.5-30.4 4-4.2 1.5-8.6 8.2-8.6 13.1 0 5 3.7 8.6 12.1 11.7C184 418 216.3 420 323.2 420h76.6l.5 34.2c.3 26.8.8 35.8 2.1 41.3 2.5 10.7 4.5 16.3 7.3 19.5 6 7.1 12.2.9 15.9-15.9.9-3.8 1.9-17 2.4-30.6 1.7-43.9 3.4-45.7 49.4-50.5 22.8-2.4 36.7-4.9 47.7-8.5 11.5-3.9 18.5-9.2 14.9-11.5-10.4-6.8-86-13.4-195-17-34.2-1.1-137.9-1.1-155.5.1z"/><path d="M189 494.6c0 33.8.9 45.2 4.6 57.4 7.4 25.1 26.5 38.7 62.9 44.8 24.4 4.2 35.5 4.7 95.5 4.7 61.2 0 74.8-.8 98.5-5.6 34.6-7 51.4-20.6 58.5-47.5 3.1-11.9 4.6-35.5 3.2-51.1-1.9-20.8-5.6-29.8-13.9-33.5-9.4-4.1-18.8.3-23.7 11.2-2.3 5.2-3 8.7-4.1 21.4-.8 8.7-2.2 17.8-3.4 21.6-5.9 18.8-21.3 33.4-40.9 38.5-7.8 2.1-23.2 2.1-31.2 0-19.2-4.9-36.2-20.5-43.3-39.5-1.4-3.6-3.5-11.4-4.6-17.4-4-19.9-7.6-26.9-16.3-31.4-9.5-4.9-15.8-5.3-81-5.9l-60.8-.5v32.8zM321 645c-21 .8-29.8 2-37.2 5.2-6 2.6-8.2 5.9-8.2 12.3-.1 21.3 25.8 35.3 68.4 37.2 32.1 1.4 62.5-5.9 75.7-18 6.4-5.8 8.6-10.7 8.1-17.4-1.1-13.3-14-17.7-56.8-19.3-12.9-.5-25.1-.9-27-.8-1.9.1-12.3.4-23 .8z"/></svg>