<?xml version="1.0" standalone="no"?>
<!DOCTYPE svg PUBLIC "-//W3C//DTD SVG 20010904//EN"
 "http://www.w3.org/TR/2001/REC-SVG-20010904/DTD/svg10.dtd">
<svg version="1.0" xmlns="http://www.w3.org/2000/svg"
 width="700.000000pt" height="700.000000pt" viewBox="0 0 700.000000 700.000000"
 preserveAspectRatio="xMidYMid meet">
<metadata>
Created by potrace 1.14, written by Peter Selinger 2001-2017
</metadata>
<g transform="translate(0.000000,700.000000) scale(0.100000,-0.100000)"
fill="#000000" stroke="none">
<path d="M3170 6989 c-399 -40 -796 -158 -1215 -364 -709 -347 -1248 -865
-1584 -1523 -323 -635 -439 -1386 -330 -2147 138 -961 668 -1809 1449 -2320
348 -228 670 -356 755 -301 80 53 -30 206 -315 436 -215 174 -331 301 -385
425 -51 115 -65 202 -76 475 -19 501 -72 700 -230 862 -120 124 -176 265 -186
463 -9 195 36 332 150 452 35 38 76 89 90 114 71 120 119 295 142 510 26 237
63 371 154 564 169 354 425 643 781 880 580 386 1229 468 1835 231 620 -243
1119 -747 1303 -1316 39 -119 58 -213 72 -360 17 -178 67 -366 130 -490 12
-24 53 -76 90 -115 101 -107 145 -207 165 -376 7 -64 -9 -208 -32 -289 -26
-92 -83 -189 -160 -271 -82 -88 -122 -160 -158 -286 -41 -142 -55 -253 -65
-523 -10 -271 -18 -346 -51 -450 -54 -173 -142 -277 -449 -531 -239 -199 -349
-346 -298 -397 20 -20 104 -14 184 13 130 44 372 173 529 284 198 140 493 418
651 616 557 695 871 1568 840 2335 -27 696 -264 1351 -695 1925 -607 806
-1478 1329 -2436 1460 -135 19 -526 27 -655 14z"/>
<path d="M3330 5435 c-380 -85 -814 -280 -968 -435 -50 -51 -61 -83 -40 -119
72 -121 530 -306 933 -377 148 -26 376 -24 530 4 455 85 915 289 915 405 0 40
-37 87 -113 141 -270 192 -857 409 -1096 405 -31 0 -103 -11 -161 -24z"/>
<path d="M1977 4378 c-71 -71 -118 -474 -68 -584 63 -139 212 -153 1596 -154
1154 0 1395 12 1524 78 86 43 96 71 96 262 -2 449 -113 507 -565 295 -74 -35
-178 -77 -230 -93 -475 -150 -1215 -146 -1675 10 -33 11 -124 49 -201 84 -161
72 -286 111 -384 120 -64 6 -70 5 -93 -18z"/>
<path d="M1895 3189 c-137 -9 -262 -25 -304 -40 -42 -15 -86 -82 -86 -131 0
-50 37 -86 121 -117 214 -81 537 -101 1606 -101 l766 0 5 -342 c3 -268 8 -358
21 -413 25 -107 45 -163 73 -195 60 -71 122 -9 159 159 9 38 19 170 24 306 17
439 34 457 494 505 228 24 367 49 477 85 115 39 185 92 149 115 -104 68 -860
134 -1950 170 -342 11 -1379 11 -1555 -1z"/>
<path d="M1890 2054 c0 -338 9 -452 46 -574 74 -251 265 -387 629 -448 244
-42 355 -47 955 -47 612 0 748 8 985 56 346 70 514 206 585 475 31 119 46 355
32 511 -19 208 -56 298 -139 335 -94 41 -188 -3 -237 -112 -23 -52 -30 -87
-41 -214 -8 -87 -22 -178 -34 -216 -59 -188 -213 -334 -409 -385 -78 -21 -232
-21 -312 0 -192 49 -362 205 -433 395 -14 36 -35 114 -46 174 -40 199 -76 269
-163 314 -95 49 -158 53 -810 59 l-608 5 0 -328z"/>
<path d="M3210 550 c-210 -8 -298 -20 -372 -52 -60 -26 -82 -59 -82 -123 -1
-213 258 -353 684 -372 321 -14 625 59 757 180 64 58 86 107 81 174 -11 133
-140 177 -568 193 -129 5 -251 9 -270 8 -19 -1 -123 -4 -230 -8z"/>
</g>
</svg>
